<svg width="243" height="69" viewBox="0 0 243 69" fill="none" xmlns="http://www.w3.org/2000/svg">
<path d="M12.7629 55.1504V25.9021H1.70172V17.9253H33.1304V25.9021H21.8033V55.1504H12.7629ZM54.8805 55.6822C52.0443 55.6822 49.4563 55.2036 47.1164 54.2464C44.7765 53.2891 42.738 51.9419 41.0008 50.2048C39.2637 48.4676 37.9165 46.4291 36.9592 44.0892C36.002 41.7493 35.5234 39.179 35.5234 36.3783C35.5234 33.5775 36.002 31.0072 36.9592 28.6674C37.9165 26.3275 39.2637 24.289 41.0008 22.5518C42.738 20.8146 44.7765 19.4674 47.1164 18.5102C49.4563 17.553 52.0266 17.0744 54.8273 17.0744C57.6281 17.0744 60.1984 17.553 62.5382 18.5102C64.8781 19.4674 66.9166 20.8146 68.6538 22.5518C70.391 24.289 71.7204 26.3275 72.6422 28.6674C73.5994 31.0072 74.078 33.5775 74.078 36.3783C74.078 39.1436 73.5994 41.7139 72.6422 44.0892C71.7204 46.4291 70.391 48.4676 68.6538 50.2048C66.9166 51.9419 64.8781 53.2891 62.5382 54.2464C60.1984 55.2036 57.6458 55.6822 54.8805 55.6822ZM54.8273 47.1736C56.2809 47.1736 57.6103 46.9077 58.8157 46.3759C60.0566 45.8441 61.1201 45.0996 62.0064 44.1424C62.9282 43.1497 63.6373 41.9975 64.1336 40.6858C64.6299 39.374 64.8781 37.9382 64.8781 36.3783C64.8781 34.8184 64.6299 33.3825 64.1336 32.0708C63.6373 30.7591 62.9282 29.6246 62.0064 28.6674C61.1201 27.6747 60.0566 26.9125 58.8157 26.3807C57.6103 25.8489 56.2809 25.583 54.8273 25.583C53.3738 25.583 52.0266 25.8489 50.7857 26.3807C49.5803 26.9125 48.5168 27.6747 47.595 28.6674C46.6732 29.6246 45.9642 30.7591 45.4678 32.0708C45.007 33.3825 44.7765 34.8184 44.7765 36.3783C44.7765 37.9382 45.007 39.3917 45.4678 40.7389C45.9642 42.0507 46.6732 43.1852 47.595 44.1424C48.5168 45.0996 49.5803 45.8441 50.7857 46.3759C52.0266 46.9077 53.3738 47.1736 54.8273 47.1736Z" fill="black"/>
<path d="M88.9043 53V15.7749H104.486C107.216 15.7749 109.715 16.2357 111.984 17.1575C114.253 18.0438 116.203 19.3201 117.834 20.9864C119.5 22.6527 120.776 24.6203 121.662 26.8892C122.549 29.1582 122.992 31.6576 122.992 34.3874C122.992 37.1173 122.549 39.6344 121.662 41.9388C120.776 44.2078 119.5 46.1754 117.834 47.8417C116.203 49.4725 114.253 50.7488 111.984 51.6705C109.715 52.5568 107.216 53 104.486 53H88.9043ZM97.9447 46.8313L96.7216 45.0232H104.22C105.709 45.0232 107.038 44.775 108.208 44.2787C109.378 43.7469 110.371 43.0201 111.186 42.0984C112.037 41.1766 112.693 40.0598 113.154 38.7481C113.615 37.4363 113.845 35.9828 113.845 34.3874C113.845 32.7921 113.615 31.3385 113.154 30.0268C112.693 28.715 112.037 27.5983 111.186 26.6765C110.371 25.7547 109.378 25.0457 108.208 24.5494C107.038 24.0176 105.709 23.7517 104.22 23.7517H96.5621L97.9447 22.05V46.8313Z" fill="#92E99B"/>
<path d="M169.661 53V15.7749H177.744L197.261 42.3642L195.506 42.0984C195.329 40.9284 195.187 39.8117 195.081 38.7481C194.974 37.6845 194.868 36.6387 194.762 35.6105C194.691 34.5824 194.62 33.5366 194.549 32.473C194.513 31.4094 194.478 30.2572 194.442 29.0164C194.442 27.7755 194.442 26.4283 194.442 24.9748V15.7749H203.217V53H195.027L174.66 25.5598L177.372 25.932C177.549 27.6337 177.691 29.0873 177.798 30.2927C177.939 31.4626 178.046 32.5084 178.117 33.4302C178.223 34.352 178.294 35.1851 178.329 35.9296C178.365 36.6741 178.382 37.4186 178.382 38.1631C178.418 38.8722 178.436 39.6699 178.436 40.5562V53H169.661ZM212.557 53V15.7749H238.509V23.4858H221.332V45.2891H239.04V53H212.557ZM216.812 37.7377V30.399H236.116V37.7377H216.812Z" fill="#92E99B"/>
<path fill-rule="evenodd" clip-rule="evenodd" d="M127.465 37.988C126.741 34.347 127.113 30.5729 128.533 27.1431C129.954 23.7134 132.36 20.7819 135.446 18.7194C138.533 16.6569 142.162 15.5561 145.875 15.5561L145.875 22.6466C143.565 22.6466 141.306 23.3316 139.386 24.6149C137.465 25.8983 135.968 27.7224 135.084 29.8566C134.2 31.9907 133.969 34.3391 134.419 36.6047C134.87 38.8703 135.982 40.9514 137.616 42.5848C139.249 44.2182 141.33 45.3306 143.596 45.7813C145.862 46.2319 148.21 46.0006 150.344 45.1166C152.478 44.2326 154.302 42.7356 155.586 40.8149C156.869 38.8942 157.554 36.6361 157.554 34.3261L164.645 34.3261C164.645 38.0385 163.544 41.6675 161.481 44.7542C159.419 47.8409 156.487 50.2467 153.058 51.6674C149.628 53.0881 145.854 53.4598 142.213 52.7355C138.572 52.0113 135.227 50.2236 132.602 47.5986C129.977 44.9735 128.189 41.629 127.465 37.988Z" fill="#92E99B"/>
<path d="M140.073 30.713L146.549 37.1892L161.784 21.9541" stroke="#92E99B" stroke-width="6.88819"/>
</svg>
